<mxfile host="app.diagrams.net" modified="2021-06-01T12:44:05.390Z" agent="5.0 (Windows NT 10.0; Win64; x64) AppleWebKit/537.36 (KHTML, like Gecko) Chrome/90.0.4430.212 Safari/537.36" etag="lsIJzI08Ej-ongQbqmTa" version="14.7.3" type="github">
  <diagram id="HicRuo3T3Oe1w8JAZ6cr" name="Page-1">
    <mxGraphModel dx="1574" dy="1120" grid="1" gridSize="10" guides="1" tooltips="1" connect="1" arrows="1" fold="1" page="1" pageScale="1" pageWidth="827" pageHeight="1169" math="0" shadow="0">
      <root>
        <mxCell id="0" />
        <mxCell id="1" parent="0" />
        <mxCell id="VXgbj3pTnMDOS4B3G8BA-1" value="TRAMO" style="rounded=0;whiteSpace=wrap;html=1;" vertex="1" parent="1">
          <mxGeometry x="170" y="370" width="120" height="60" as="geometry" />
        </mxCell>
        <mxCell id="VXgbj3pTnMDOS4B3G8BA-16" style="edgeStyle=orthogonalEdgeStyle;rounded=0;orthogonalLoop=1;jettySize=auto;html=1;exitX=1;exitY=0.5;exitDx=0;exitDy=0;entryX=0;entryY=0.5;entryDx=0;entryDy=0;endArrow=none;endFill=0;" edge="1" parent="1" source="VXgbj3pTnMDOS4B3G8BA-2" target="VXgbj3pTnMDOS4B3G8BA-1">
          <mxGeometry relative="1" as="geometry" />
        </mxCell>
        <mxCell id="VXgbj3pTnMDOS4B3G8BA-18" style="edgeStyle=orthogonalEdgeStyle;rounded=0;orthogonalLoop=1;jettySize=auto;html=1;exitX=0;exitY=0.5;exitDx=0;exitDy=0;entryX=1;entryY=0.5;entryDx=0;entryDy=0;endArrow=none;endFill=0;" edge="1" parent="1" source="VXgbj3pTnMDOS4B3G8BA-2" target="VXgbj3pTnMDOS4B3G8BA-5">
          <mxGeometry relative="1" as="geometry" />
        </mxCell>
        <mxCell id="VXgbj3pTnMDOS4B3G8BA-2" value="PERTENECE" style="rhombus;whiteSpace=wrap;html=1;" vertex="1" parent="1">
          <mxGeometry x="-30" y="360" width="80" height="80" as="geometry" />
        </mxCell>
        <mxCell id="VXgbj3pTnMDOS4B3G8BA-17" style="edgeStyle=orthogonalEdgeStyle;rounded=0;orthogonalLoop=1;jettySize=auto;html=1;exitX=0;exitY=0.5;exitDx=0;exitDy=0;entryX=1;entryY=0.5;entryDx=0;entryDy=0;endArrow=none;endFill=0;" edge="1" parent="1" source="VXgbj3pTnMDOS4B3G8BA-3" target="VXgbj3pTnMDOS4B3G8BA-1">
          <mxGeometry relative="1" as="geometry" />
        </mxCell>
        <mxCell id="VXgbj3pTnMDOS4B3G8BA-22" style="edgeStyle=orthogonalEdgeStyle;rounded=0;orthogonalLoop=1;jettySize=auto;html=1;exitX=1;exitY=0.5;exitDx=0;exitDy=0;entryX=0;entryY=0.5;entryDx=0;entryDy=0;endArrow=none;endFill=0;" edge="1" parent="1" source="VXgbj3pTnMDOS4B3G8BA-3" target="VXgbj3pTnMDOS4B3G8BA-4">
          <mxGeometry relative="1" as="geometry" />
        </mxCell>
        <mxCell id="VXgbj3pTnMDOS4B3G8BA-3" value="PASA" style="rhombus;whiteSpace=wrap;html=1;" vertex="1" parent="1">
          <mxGeometry x="390" y="360" width="80" height="80" as="geometry" />
        </mxCell>
        <mxCell id="VXgbj3pTnMDOS4B3G8BA-4" value="COMUNIDAD" style="rounded=0;whiteSpace=wrap;html=1;" vertex="1" parent="1">
          <mxGeometry x="570" y="370" width="120" height="60" as="geometry" />
        </mxCell>
        <mxCell id="VXgbj3pTnMDOS4B3G8BA-5" value="CARRETERA" style="rounded=0;whiteSpace=wrap;html=1;" vertex="1" parent="1">
          <mxGeometry x="-300" y="370" width="120" height="60" as="geometry" />
        </mxCell>
        <mxCell id="VXgbj3pTnMDOS4B3G8BA-19" style="edgeStyle=orthogonalEdgeStyle;rounded=0;orthogonalLoop=1;jettySize=auto;html=1;exitX=1;exitY=0.5;exitDx=0;exitDy=0;endArrow=none;endFill=0;" edge="1" parent="1" source="VXgbj3pTnMDOS4B3G8BA-6" target="VXgbj3pTnMDOS4B3G8BA-5">
          <mxGeometry relative="1" as="geometry" />
        </mxCell>
        <mxCell id="VXgbj3pTnMDOS4B3G8BA-6" value="&lt;u&gt;ID CARRETERA&lt;/u&gt;" style="ellipse;whiteSpace=wrap;html=1;" vertex="1" parent="1">
          <mxGeometry x="-510" y="370" width="120" height="60" as="geometry" />
        </mxCell>
        <mxCell id="VXgbj3pTnMDOS4B3G8BA-21" style="edgeStyle=orthogonalEdgeStyle;rounded=0;orthogonalLoop=1;jettySize=auto;html=1;exitX=1;exitY=0.5;exitDx=0;exitDy=0;entryX=0;entryY=0.75;entryDx=0;entryDy=0;endArrow=none;endFill=0;" edge="1" parent="1" source="VXgbj3pTnMDOS4B3G8BA-7" target="VXgbj3pTnMDOS4B3G8BA-5">
          <mxGeometry relative="1" as="geometry" />
        </mxCell>
        <mxCell id="VXgbj3pTnMDOS4B3G8BA-7" value="CATEGORIA" style="ellipse;whiteSpace=wrap;html=1;" vertex="1" parent="1">
          <mxGeometry x="-510" y="440" width="120" height="60" as="geometry" />
        </mxCell>
        <mxCell id="VXgbj3pTnMDOS4B3G8BA-20" style="edgeStyle=orthogonalEdgeStyle;rounded=0;orthogonalLoop=1;jettySize=auto;html=1;exitX=1;exitY=0.5;exitDx=0;exitDy=0;entryX=0;entryY=0.25;entryDx=0;entryDy=0;endArrow=none;endFill=0;" edge="1" parent="1" source="VXgbj3pTnMDOS4B3G8BA-8" target="VXgbj3pTnMDOS4B3G8BA-5">
          <mxGeometry relative="1" as="geometry" />
        </mxCell>
        <mxCell id="VXgbj3pTnMDOS4B3G8BA-8" value="NOMBRE" style="ellipse;whiteSpace=wrap;html=1;" vertex="1" parent="1">
          <mxGeometry x="-510" y="300" width="120" height="60" as="geometry" />
        </mxCell>
        <mxCell id="VXgbj3pTnMDOS4B3G8BA-24" style="edgeStyle=orthogonalEdgeStyle;rounded=0;orthogonalLoop=1;jettySize=auto;html=1;exitX=0;exitY=0.5;exitDx=0;exitDy=0;entryX=1;entryY=0.333;entryDx=0;entryDy=0;entryPerimeter=0;endArrow=none;endFill=0;" edge="1" parent="1" source="VXgbj3pTnMDOS4B3G8BA-9" target="VXgbj3pTnMDOS4B3G8BA-4">
          <mxGeometry relative="1" as="geometry" />
        </mxCell>
        <mxCell id="VXgbj3pTnMDOS4B3G8BA-9" value="KM FIN" style="ellipse;whiteSpace=wrap;html=1;" vertex="1" parent="1">
          <mxGeometry x="730" y="330" width="120" height="60" as="geometry" />
        </mxCell>
        <mxCell id="VXgbj3pTnMDOS4B3G8BA-25" style="edgeStyle=orthogonalEdgeStyle;rounded=0;orthogonalLoop=1;jettySize=auto;html=1;exitX=0;exitY=0.5;exitDx=0;exitDy=0;entryX=0.998;entryY=0.569;entryDx=0;entryDy=0;entryPerimeter=0;endArrow=none;endFill=0;" edge="1" parent="1" source="VXgbj3pTnMDOS4B3G8BA-10" target="VXgbj3pTnMDOS4B3G8BA-4">
          <mxGeometry relative="1" as="geometry" />
        </mxCell>
        <mxCell id="VXgbj3pTnMDOS4B3G8BA-10" value="&lt;u&gt;ID COMUNIDAD&lt;/u&gt;" style="ellipse;whiteSpace=wrap;html=1;" vertex="1" parent="1">
          <mxGeometry x="730" y="410" width="120" height="60" as="geometry" />
        </mxCell>
        <mxCell id="VXgbj3pTnMDOS4B3G8BA-26" style="edgeStyle=orthogonalEdgeStyle;rounded=0;orthogonalLoop=1;jettySize=auto;html=1;exitX=0;exitY=0.5;exitDx=0;exitDy=0;entryX=1;entryY=1;entryDx=0;entryDy=0;endArrow=none;endFill=0;" edge="1" parent="1" source="VXgbj3pTnMDOS4B3G8BA-11" target="VXgbj3pTnMDOS4B3G8BA-4">
          <mxGeometry relative="1" as="geometry" />
        </mxCell>
        <mxCell id="VXgbj3pTnMDOS4B3G8BA-11" value="NOMBRE" style="ellipse;whiteSpace=wrap;html=1;" vertex="1" parent="1">
          <mxGeometry x="730" y="500" width="120" height="60" as="geometry" />
        </mxCell>
        <mxCell id="VXgbj3pTnMDOS4B3G8BA-27" style="edgeStyle=orthogonalEdgeStyle;rounded=0;orthogonalLoop=1;jettySize=auto;html=1;exitX=0;exitY=0.5;exitDx=0;exitDy=0;entryX=1;entryY=0;entryDx=0;entryDy=0;endArrow=none;endFill=0;" edge="1" parent="1" source="VXgbj3pTnMDOS4B3G8BA-12" target="VXgbj3pTnMDOS4B3G8BA-4">
          <mxGeometry relative="1" as="geometry" />
        </mxCell>
        <mxCell id="VXgbj3pTnMDOS4B3G8BA-12" value="KM INICIO" style="ellipse;whiteSpace=wrap;html=1;" vertex="1" parent="1">
          <mxGeometry x="730" y="240" width="120" height="60" as="geometry" />
        </mxCell>
        <mxCell id="VXgbj3pTnMDOS4B3G8BA-28" style="edgeStyle=orthogonalEdgeStyle;rounded=0;orthogonalLoop=1;jettySize=auto;html=1;exitX=0.5;exitY=0;exitDx=0;exitDy=0;entryX=0.5;entryY=1;entryDx=0;entryDy=0;endArrow=none;endFill=0;" edge="1" parent="1" source="VXgbj3pTnMDOS4B3G8BA-13" target="VXgbj3pTnMDOS4B3G8BA-1">
          <mxGeometry relative="1" as="geometry" />
        </mxCell>
        <mxCell id="VXgbj3pTnMDOS4B3G8BA-13" value="&lt;u&gt;ID TRAMO&lt;/u&gt;" style="ellipse;whiteSpace=wrap;html=1;" vertex="1" parent="1">
          <mxGeometry x="170" y="500" width="120" height="60" as="geometry" />
        </mxCell>
        <mxCell id="VXgbj3pTnMDOS4B3G8BA-30" style="edgeStyle=orthogonalEdgeStyle;rounded=0;orthogonalLoop=1;jettySize=auto;html=1;exitX=0.5;exitY=0;exitDx=0;exitDy=0;entryX=0.75;entryY=1;entryDx=0;entryDy=0;endArrow=none;endFill=0;" edge="1" parent="1" source="VXgbj3pTnMDOS4B3G8BA-14" target="VXgbj3pTnMDOS4B3G8BA-1">
          <mxGeometry relative="1" as="geometry" />
        </mxCell>
        <mxCell id="VXgbj3pTnMDOS4B3G8BA-14" value="FIN CARRETERA" style="ellipse;whiteSpace=wrap;html=1;" vertex="1" parent="1">
          <mxGeometry x="310" y="500" width="120" height="60" as="geometry" />
        </mxCell>
        <mxCell id="VXgbj3pTnMDOS4B3G8BA-29" style="edgeStyle=orthogonalEdgeStyle;rounded=0;orthogonalLoop=1;jettySize=auto;html=1;exitX=0.5;exitY=0;exitDx=0;exitDy=0;entryX=0.25;entryY=1;entryDx=0;entryDy=0;endArrow=none;endFill=0;" edge="1" parent="1" source="VXgbj3pTnMDOS4B3G8BA-15" target="VXgbj3pTnMDOS4B3G8BA-1">
          <mxGeometry relative="1" as="geometry" />
        </mxCell>
        <mxCell id="VXgbj3pTnMDOS4B3G8BA-15" value="INICIO CARRETERA" style="ellipse;whiteSpace=wrap;html=1;" vertex="1" parent="1">
          <mxGeometry x="30" y="500" width="120" height="60" as="geometry" />
        </mxCell>
        <mxCell id="VXgbj3pTnMDOS4B3G8BA-31" value="1,N" style="text;html=1;strokeColor=none;fillColor=none;align=center;verticalAlign=middle;whiteSpace=wrap;rounded=0;" vertex="1" parent="1">
          <mxGeometry x="-10" y="330" width="40" height="20" as="geometry" />
        </mxCell>
        <mxCell id="VXgbj3pTnMDOS4B3G8BA-32" value="N,M" style="text;html=1;strokeColor=none;fillColor=none;align=center;verticalAlign=middle;whiteSpace=wrap;rounded=0;" vertex="1" parent="1">
          <mxGeometry x="410" y="330" width="40" height="20" as="geometry" />
        </mxCell>
      </root>
    </mxGraphModel>
  </diagram>
</mxfile>
